<?xml version="1.0" encoding="utf-8"?>
<!-- Generator: Adobe Illustrator 22.0.1, SVG Export Plug-In . SVG Version: 6.00 Build 0)  -->
<svg version="1.1" id="Layer_1" xmlns="http://www.w3.org/2000/svg" xmlns:xlink="http://www.w3.org/1999/xlink" x="0px" y="0px"
	 viewBox="0 0 300 300" style="enable-background:new 0 0 300 300;" xml:space="preserve">
<style type="text/css">
	.st0{fill:url(#SVGID_1_);}
	.st1{fill:#ABB3BD;}
	.st2{clip-path:url(#SVGID_5_);}
	.st3{fill:#D6DDE4;stroke:#FFFFFF;stroke-width:1.5;stroke-miterlimit:10;}
	.st4{fill:#D6DDE4;stroke:#FFFFFF;stroke-width:1.5;stroke-linejoin:round;stroke-miterlimit:10;}
	.st5{fill:#C9AAEE;stroke:#6957FF;stroke-width:5;stroke-linejoin:round;stroke-miterlimit:10;}
	.st6{fill:none;stroke:url(#SVGID_6_);stroke-width:4;stroke-linecap:round;stroke-miterlimit:10;stroke-dasharray:12,8;}
	.st7{fill:#FFFFFF;}
	.st8{fill:#1574FF;}
	.st9{opacity:0.4118;fill:#1574FF;}
	.st10{fill:#F23D64;}
</style>
<linearGradient id="SVGID_1_" gradientUnits="userSpaceOnUse" x1="53.5186" y1="241.9994" x2="247.182" y2="48.336">
	<stop  offset="0" style="stop-color:#5B79FC"/>
	<stop  offset="0.2016" style="stop-color:#7179FC"/>
	<stop  offset="0.4231" style="stop-color:#8179FC"/>
	<stop  offset="0.6717" style="stop-color:#8B79FC"/>
	<stop  offset="1" style="stop-color:#8E79FC"/>
</linearGradient>
<circle class="st0" cx="150.4" cy="145.2" r="136.9"/>
<g>
	<defs>
		<circle id="SVGID_2_" cx="154.7" cy="145.2" r="130.9"/>
	</defs>
	<clipPath id="SVGID_3_">
		<use xlink:href="#SVGID_2_"  style="overflow:visible;"/>
	</clipPath>
</g>
<g>
	<path class="st1" d="M295.9,132L158.5,52.7c-5-2.9-13-2.9-17.9,0L4,132c-2.4,1.4-3.7,3.3-3.7,5.2c0,0,0,0,0,0l0,4.1
		c0,1.9,1.2,3.8,3.7,5.2l137.4,79.3c0.3,0.2,0.6,0.3,0.9,0.5c0.1,0.1,0.2,0.1,0.3,0.1c0.2,0.1,0.4,0.2,0.6,0.2c0,0,0.1,0,0.1,0
		c0.4,0.2,0.9,0.3,1.4,0.5c0,0,0.1,0,0.1,0c0.1,0,0.2,0.1,0.3,0.1c0.3,0.1,0.5,0.1,0.8,0.2c0.1,0,0.1,0,0.2,0c0.1,0,0.2,0,0.3,0.1
		c0.2,0,0.4,0.1,0.7,0.1c0.1,0,0.2,0,0.3,0c0.1,0,0.2,0,0.3,0c0.2,0,0.4,0.1,0.6,0.1c0.1,0,0.2,0,0.3,0c0.1,0,0.2,0,0.3,0
		c0.2,0,0.4,0,0.7,0c0.1,0,0.2,0,0.3,0c0.1,0,0.2,0,0.3,0c0.2,0,0.5,0,0.7,0c0.1,0,0.2,0,0.3,0c0.1,0,0.1,0,0.2,0
		c0.3,0,0.6,0,0.9-0.1c0.1,0,0.2,0,0.3,0c0,0,0.1,0,0.1,0c0.5-0.1,1-0.1,1.4-0.2c0,0,0,0,0.1,0c0.1,0,0.3-0.1,0.4-0.1
		c0.2,0,0.5-0.1,0.7-0.1c0.2,0,0.3-0.1,0.5-0.1c0.2-0.1,0.4-0.1,0.7-0.2c0,0,0.1,0,0.1,0c0.1,0,0.1-0.1,0.2-0.1
		c0.3-0.1,0.7-0.2,1-0.4c0.1-0.1,0.2-0.1,0.4-0.2c0.4-0.2,0.8-0.4,1.2-0.6L296,146.5c0.1,0,0.1-0.1,0.2-0.1c0.1-0.1,0.2-0.1,0.3-0.2
		c0.2-0.1,0.3-0.2,0.4-0.3c0.1-0.1,0.2-0.2,0.4-0.3c0.1-0.1,0.3-0.2,0.4-0.3c0,0,0.1,0,0.1-0.1c0,0,0.1-0.1,0.1-0.1
		c0.2-0.2,0.4-0.4,0.5-0.6c0,0,0.1-0.1,0.1-0.1c0,0,0.1-0.1,0.1-0.1c0.1-0.1,0.2-0.3,0.3-0.4c0-0.1,0.1-0.1,0.1-0.2c0,0,0-0.1,0-0.1
		c0.1-0.1,0.1-0.3,0.2-0.4c0-0.1,0.1-0.2,0.1-0.2c0,0,0-0.1,0-0.1c0-0.1,0.1-0.3,0.1-0.4c0-0.1,0.1-0.2,0.1-0.3c0,0,0,0,0-0.1
		c0-0.1,0-0.3,0-0.4c0-0.1,0-0.2,0-0.3c0,0,0-0.1,0-0.1l0-4.1c0,0.1,0,0.2,0,0.4C299.8,135.6,298.6,133.5,295.9,132z M4.8,132.4
		l136.5-79.3c2.3-1.3,5.2-2,8.2-2c3,0,6,0.7,8.3,2l137.4,79.3c2.3,1.3,3.4,3,3.4,4.8c0,1.7-1.1,3.5-3.4,4.8l-136.5,79.3
		c-2.3,1.3-5.2,2-8.2,2c-3,0-6-0.7-8.3-2L4.8,142c-2.3-1.3-3.4-3-3.4-4.8C1.4,135.5,2.5,133.7,4.8,132.4z"/>
	<g>
		<defs>
			<path id="SVGID_4_" d="M4.8,132.4l136.5-79.3c2.3-1.3,5.2-2,8.2-2c3,0,6,0.7,8.3,2l137.4,79.3c2.3,1.3,3.4,3,3.4,4.8
				c0,1.7-1.1,3.5-3.4,4.8l-136.5,79.3c-2.3,1.3-5.2,2-8.2,2c-3,0-6-0.7-8.3-2L4.8,142c-2.3-1.3-3.4-3-3.4-4.8
				C1.4,135.5,2.5,133.7,4.8,132.4z"/>
		</defs>
		<use xlink:href="#SVGID_4_"  style="overflow:visible;fill:#F1F3F4;"/>
		<clipPath id="SVGID_5_">
			<use xlink:href="#SVGID_4_"  style="overflow:visible;"/>
		</clipPath>
		<g class="st2">
			<polygon class="st3" points="149.2,70.8 170.1,58.6 196.2,73.6 175.2,85.8 			"/>
		</g>
		<g class="st2">
			<polygon class="st3" points="211,106.5 231.7,94.5 270.8,117 229.9,140.8 217.4,133.5 			"/>
		</g>
		<g class="st2">
			<polygon class="st4" points="139.2,110.7 85.2,142.7 34.1,113.1 100.8,74.3 140.3,97.1 			"/>
		</g>
		<g class="st2">
			<polygon class="st3" points="68.1,182.3 149.4,134.6 181.1,152.9 99.7,200.6 			"/>
		</g>
		<g class="st2">
			<polygon class="st3" points="99.2,200.9 124.5,185.9 175.3,214.8 151.9,233.5 			"/>
		</g>
		<g class="st2">
			<polygon class="st3" points="-13.9,140.5 34.5,113 85,142.5 27.3,177.5 			"/>
		</g>
		<g class="st2">
			<path class="st3" d="M149,49.4c3,0,6,0.7,8.3,2l12.9,7.5L149.3,71l-21.2-12.2l12.7-7.4C143.1,50.1,146.1,49.4,149,49.4z"/>
		</g>
		<g class="st2">
			<polygon class="st3" points="229.6,140.5 270.5,116.8 288.1,126.9 247.2,150.7 			"/>
		</g>
		<g class="st2">
			<path class="st3" d="M297.4,132.3c2.3,1.3,3.4,3,3.4,4.8c0,1.7-1.1,3.5-3.4,4.8l-32.6,19l-17.7-10.2l40.9-23.7L297.4,132.3z"/>
		</g>
		<g class="st2">
			<polygon class="st3" points="181.1,152.9 213.1,171.4 215.1,191.7 201.2,200.2 150.3,170.8 			"/>
		</g>
		<g class="st2">
			<polygon class="st3" points="125,185.6 150.3,170.8 203.2,201.5 177.8,216.2 			"/>
		</g>
	</g>
</g>
<g>
	<polygon class="st5" points="212.4,108 230.9,97.3 265.7,117.4 229.3,138.6 218.1,132.1 	"/>
</g>
<linearGradient id="SVGID_6_" gradientUnits="userSpaceOnUse" x1="57.5026" y1="143.1885" x2="237.6261" y2="143.1885">
	<stop  offset="0" style="stop-color:#B4B5FD;stop-opacity:0"/>
	<stop  offset="7.279079e-02" style="stop-color:#B4B5FD;stop-opacity:0.2"/>
	<stop  offset="0.1508" style="stop-color:#BDA4FD;stop-opacity:0.2732"/>
	<stop  offset="0.2746" style="stop-color:#C791FC;stop-opacity:0.3896"/>
	<stop  offset="0.4182" style="stop-color:#CE83FC;stop-opacity:0.5244"/>
	<stop  offset="0.5975" style="stop-color:#D27BFC;stop-opacity:0.6928"/>
	<stop  offset="0.9245" style="stop-color:#D379FC"/>
</linearGradient>
<polyline class="st6" points="59.5,173.6 159.7,113.2 201.8,139.3 235.6,116 "/>
<g id="Vector_Smart_Object_7_">
	<g>
		<path class="st7" d="M108.3,144.4c5.6,3.3,5.7,8.6,0.1,11.8c-5.6,3.3-14.8,3.3-20.4,0c-5.6-3.3-5.7-8.6-0.1-11.8
			C93.5,141.1,102.6,141.1,108.3,144.4z M90.4,154.7c4.3,2.5,11.2,2.5,15.4,0c4.2-2.5,4.2-6.5,0-8.9c-4.3-2.5-11.2-2.5-15.4,0
			C86.1,148.2,86.1,152.3,90.4,154.7"/>
	</g>
	<g>
		<path class="st8" d="M105.8,145.8c4.3,2.5,4.3,6.5,0,8.9c-4.2,2.5-11.2,2.5-15.4,0c-4.3-2.5-4.3-6.5-0.1-8.9
			C94.6,143.3,101.5,143.3,105.8,145.8z"/>
	</g>
	<g>
		<path class="st9" d="M120.1,137.6c12.2,7,12.2,18.4,0.1,25.4c-12.1,7-31.7,7-43.9,0c-12.2-7-12.2-18.4-0.1-25.4
			C88.3,130.6,107.9,130.6,120.1,137.6z M87.9,156.2c5.6,3.3,14.8,3.3,20.4,0c5.6-3.3,5.6-8.6-0.1-11.8c-5.6-3.3-14.8-3.3-20.4,0
			C82.3,147.6,82.3,152.9,87.9,156.2"/>
	</g>
</g>
<path class="st10" d="M235.9,40.5c-14.8,0-26.8,12-26.8,26.8c0,12.2,18.3,40.2,24.7,49.5c1,1.5,3.2,1.5,4.2,0
	c6.3-9.3,24.7-37.3,24.7-49.5C262.7,52.5,250.7,40.5,235.9,40.5z M235.9,77.7c-7.7,0-13.9-6.2-13.9-13.9S228.2,50,235.9,50
	s13.9,6.2,13.9,13.9S243.6,77.7,235.9,77.7z"/>
</svg>
