<?xml version="1.0" encoding="utf-8"?>
<!-- Generator: Adobe Illustrator 22.0.1, SVG Export Plug-In . SVG Version: 6.00 Build 0)  -->
<svg version="1.1" id="Layer_1" xmlns="http://www.w3.org/2000/svg" xmlns:xlink="http://www.w3.org/1999/xlink" x="0px" y="0px"
	 viewBox="0 0 300 300" style="enable-background:new 0 0 300 300;" xml:space="preserve">
<style type="text/css">
	.st0{fill:url(#SVGID_1_);}
	.st1{clip-path:url(#SVGID_3_);}
	.st2{fill:none;stroke:url(#SVGID_4_);stroke-width:2;stroke-linecap:round;stroke-miterlimit:10;}
	.st3{fill:none;stroke:url(#SVGID_5_);stroke-width:2;stroke-linecap:round;stroke-miterlimit:10;}
	.st4{fill:none;stroke:url(#SVGID_6_);stroke-width:2;stroke-linecap:round;stroke-miterlimit:10;}
	.st5{fill:none;stroke:url(#SVGID_7_);stroke-width:2;stroke-linecap:round;stroke-miterlimit:10;}
	.st6{fill:none;stroke:#FE7E7B;stroke-width:2;stroke-linecap:round;stroke-miterlimit:10;}
	.st7{fill:none;stroke:url(#SVGID_8_);stroke-width:2;stroke-linecap:round;stroke-miterlimit:10;}
	.st8{fill:none;stroke:url(#SVGID_9_);stroke-width:2;stroke-linecap:round;stroke-miterlimit:10;}
	.st9{fill:#ABB3BD;}
	.st10{clip-path:url(#SVGID_11_);}
	.st11{fill:#D6DDE4;stroke:#FFFFFF;stroke-width:1.5;stroke-miterlimit:10;}
	.st12{clip-path:url(#SVGID_3_);fill:none;stroke:#FE7E7B;stroke-width:2;stroke-linecap:round;stroke-miterlimit:10;}
	.st13{opacity:0.79;clip-path:url(#SVGID_3_);}
	.st14{fill:url(#SVGID_12_);}
	
		.st15{clip-path:url(#SVGID_3_);fill:none;stroke:url(#SVGID_13_);stroke-width:4;stroke-linecap:round;stroke-miterlimit:10;stroke-dasharray:12,8;}
	.st16{fill:#FFFFFF;}
	.st17{fill:#1574FF;}
	.st18{opacity:0.4118;fill:#1574FF;}
	.st19{fill:#F23D64;}
</style>
<linearGradient id="SVGID_1_" gradientUnits="userSpaceOnUse" x1="53.3556" y1="242.0638" x2="247.0191" y2="48.4004">
	<stop  offset="0" style="stop-color:#363987"/>
	<stop  offset="0.1123" style="stop-color:#3B3C93"/>
	<stop  offset="0.2882" style="stop-color:#3F3FA1"/>
	<stop  offset="0.4492" style="stop-color:#4140A5"/>
	<stop  offset="0.7183" style="stop-color:#4740A5"/>
	<stop  offset="1" style="stop-color:#5340A5"/>
</linearGradient>
<circle class="st0" cx="150.2" cy="145.2" r="136.9"/>
<g>
	<defs>
		<circle id="SVGID_2_" cx="150.3" cy="145.2" r="136.9"/>
	</defs>
	<clipPath id="SVGID_3_">
		<use xlink:href="#SVGID_2_"  style="overflow:visible;"/>
	</clipPath>
	<g class="st1">
		<linearGradient id="SVGID_4_" gradientUnits="userSpaceOnUse" x1="54.0262" y1="113.8546" x2="116.6471" y2="113.8546">
			<stop  offset="0" style="stop-color:#FE7E7B"/>
			<stop  offset="0.3724" style="stop-color:#FE8A7A"/>
			<stop  offset="1" style="stop-color:#FFA879"/>
		</linearGradient>
		<line class="st2" x1="55" y1="96.3" x2="115.6" y2="131.4"/>
	</g>
	<g class="st1">
		<linearGradient id="SVGID_5_" gradientUnits="userSpaceOnUse" x1="88.4303" y1="93.9727" x2="151.0512" y2="93.9727">
			<stop  offset="0" style="stop-color:#FE7E7B"/>
			<stop  offset="0.3724" style="stop-color:#FE8A7A"/>
			<stop  offset="1" style="stop-color:#FFA879"/>
		</linearGradient>
		<line class="st3" x1="89.4" y1="76.4" x2="150.1" y2="111.6"/>
	</g>
	<g class="st1">
		<linearGradient id="SVGID_6_" gradientUnits="userSpaceOnUse" x1="123.181" y1="74.7389" x2="185.8019" y2="74.7389">
			<stop  offset="0" style="stop-color:#FE7E7B"/>
			<stop  offset="0.3724" style="stop-color:#FE8A7A"/>
			<stop  offset="1" style="stop-color:#FFA879"/>
		</linearGradient>
		<line class="st4" x1="124.2" y1="57.2" x2="184.8" y2="92.3"/>
	</g>
	<g class="st1">
		<linearGradient id="SVGID_7_" gradientUnits="userSpaceOnUse" x1="155.3785" y1="55.8161" x2="217.9994" y2="55.8161">
			<stop  offset="0" style="stop-color:#FE7E7B"/>
			<stop  offset="0.3724" style="stop-color:#FE8A7A"/>
			<stop  offset="1" style="stop-color:#FFA879"/>
		</linearGradient>
		<line class="st5" x1="156.4" y1="38.2" x2="217" y2="73.4"/>
	</g>
	<g class="st1">
		<line class="st6" x1="50.9" y1="98" x2="58.5" y2="93.4"/>
	</g>
	<g class="st1">
		<line class="st6" x1="85" y1="77.7" x2="92.6" y2="73.1"/>
	</g>
	<g class="st1">
		<line class="st6" x1="119.4" y1="58.9" x2="127" y2="54.3"/>
	</g>
	<g class="st1">
		<line class="st6" x1="152.5" y1="40.1" x2="160.2" y2="35.5"/>
	</g>
	<g class="st1">
		<linearGradient id="SVGID_8_" gradientUnits="userSpaceOnUse" x1="173.4211" y1="243.0083" x2="240.8942" y2="243.0083">
			<stop  offset="0" style="stop-color:#FE7E7B"/>
			<stop  offset="0.3724" style="stop-color:#FE8A7A"/>
			<stop  offset="1" style="stop-color:#FFA879"/>
		</linearGradient>
		<line class="st7" x1="174.4" y1="262.6" x2="239.9" y2="223.4"/>
	</g>
	<g class="st1">
		<linearGradient id="SVGID_9_" gradientUnits="userSpaceOnUse" x1="139.7611" y1="223.8957" x2="207.2343" y2="223.8957">
			<stop  offset="0" style="stop-color:#FE7E7B"/>
			<stop  offset="0.3724" style="stop-color:#FE8A7A"/>
			<stop  offset="1" style="stop-color:#FFA879"/>
		</linearGradient>
		<line class="st8" x1="140.8" y1="243.5" x2="206.2" y2="204.3"/>
	</g>
	<g class="st1">
		<g>
			<path class="st9" d="M463.4,132.8L297.9,37.3c-6-3.4-15.7-3.4-21.6,0l-164.5,95.6c-2.9,1.7-4.4,4-4.4,6.2c0,0,0,0,0,0l0,5
				c0,2.3,1.5,4.6,4.5,6.3l165.5,95.6c0.4,0.2,0.7,0.4,1.1,0.6c0.1,0.1,0.3,0.1,0.4,0.2c0.2,0.1,0.4,0.2,0.7,0.3c0,0,0.1,0,0.1,0
				c0.5,0.2,1.1,0.4,1.6,0.6c0,0,0.1,0,0.1,0c0.1,0,0.3,0.1,0.4,0.1c0.3,0.1,0.6,0.2,1,0.2c0.1,0,0.2,0,0.2,0.1c0.1,0,0.3,0,0.4,0.1
				c0.3,0.1,0.5,0.1,0.8,0.1c0.1,0,0.2,0,0.3,0.1c0.1,0,0.2,0,0.4,0c0.3,0,0.5,0.1,0.8,0.1c0.1,0,0.2,0,0.4,0c0.1,0,0.2,0,0.3,0
				c0.3,0,0.5,0,0.8,0c0.1,0,0.3,0,0.4,0c0.1,0,0.2,0,0.3,0c0.3,0,0.6,0,0.8,0c0.1,0,0.3,0,0.4,0c0.1,0,0.2,0,0.2,0
				c0.4,0,0.7,0,1-0.1c0.1,0,0.3,0,0.4,0c0,0,0.1,0,0.1,0c0.6-0.1,1.2-0.1,1.7-0.2c0,0,0.1,0,0.1,0c0.2,0,0.3-0.1,0.5-0.1
				c0.3-0.1,0.6-0.1,0.8-0.2c0.2,0,0.4-0.1,0.6-0.2c0.3-0.1,0.5-0.1,0.8-0.2c0.1,0,0.1,0,0.2,0c0.1,0,0.2-0.1,0.3-0.1
				c0.4-0.1,0.8-0.3,1.2-0.5c0.1-0.1,0.3-0.1,0.4-0.2c0.5-0.2,1-0.5,1.4-0.7l164.5-95.6c0.1,0,0.1-0.1,0.2-0.1
				c0.1-0.1,0.3-0.2,0.4-0.3c0.2-0.1,0.4-0.2,0.5-0.4c0.2-0.1,0.3-0.2,0.4-0.3c0.2-0.1,0.3-0.3,0.5-0.4c0,0,0.1,0,0.1-0.1
				c0.1-0.1,0.1-0.1,0.2-0.2c0.2-0.2,0.5-0.5,0.6-0.7c0-0.1,0.1-0.1,0.1-0.1c0-0.1,0.1-0.1,0.1-0.2c0.1-0.2,0.2-0.4,0.4-0.5
				c0-0.1,0.1-0.1,0.1-0.2c0,0,0-0.1,0.1-0.1c0.1-0.2,0.2-0.3,0.2-0.5c0-0.1,0.1-0.2,0.1-0.3c0,0,0-0.1,0-0.1
				c0.1-0.2,0.1-0.3,0.1-0.5c0-0.1,0.1-0.2,0.1-0.3c0,0,0-0.1,0-0.1c0-0.2,0-0.3,0.1-0.5c0-0.1,0-0.2,0-0.3c0,0,0-0.1,0-0.1l0-5
				c0,0.1,0,0.3,0,0.4C468.1,137.1,466.6,134.7,463.4,132.8z M112.7,133.3l164.5-95.6c2.7-1.6,6.3-2.4,9.9-2.4c3.6,0,7.2,0.8,10,2.4
				l165.5,95.6c2.7,1.6,4.1,3.7,4.1,5.8c0,2.1-1.3,4.2-4.1,5.7l-164.5,95.6c-2.7,1.6-6.3,2.4-9.9,2.4c-3.6,0-7.2-0.8-9.9-2.4
				l-165.5-95.6c-2.7-1.6-4.1-3.7-4.1-5.8C108.6,137,109.9,134.9,112.7,133.3z"/>
			<g>
				<defs>
					<path id="SVGID_10_" d="M112.7,133.3l164.5-95.6c2.7-1.6,6.3-2.4,9.9-2.4c3.6,0,7.2,0.8,10,2.4l165.5,95.6
						c2.7,1.6,4.1,3.7,4.1,5.8c0,2.1-1.3,4.2-4.1,5.7l-164.5,95.6c-2.7,1.6-6.3,2.4-9.9,2.4c-3.6,0-7.2-0.8-9.9-2.4l-165.5-95.6
						c-2.7-1.6-4.1-3.7-4.1-5.8C108.6,137,109.9,134.9,112.7,133.3z"/>
				</defs>
				<use xlink:href="#SVGID_10_"  style="overflow:visible;fill:#F1F3F4;"/>
				<clipPath id="SVGID_11_">
					<use xlink:href="#SVGID_10_"  style="overflow:visible;"/>
				</clipPath>
				<g class="st10">
					<polygon class="st11" points="278.5,64.2 316.6,42.4 348,60.5 309.9,82.3 					"/>
				</g>
				<g class="st10">
					<polygon class="st11" points="334.2,97.5 373.6,74.6 431.2,107.8 362.2,148 343.7,137.3 					"/>
				</g>
				<g class="st10">
					<polygon class="st11" points="274.6,107.1 209.6,145.7 148,110.1 228.4,63.4 275.9,90.8 					"/>
				</g>
				<g class="st10">
					<polygon class="st11" points="189,193.5 286.9,135.9 325.1,158 227.1,215.4 					"/>
				</g>
				<g class="st10">
					<polygon class="st11" points="226.4,215.9 257.5,197.4 318.1,232.6 289.9,255.1 					"/>
				</g>
				<g class="st10">
					<polygon class="st11" points="76.2,144.7 149.1,110.5 209.8,145.7 139.2,187.3 					"/>
				</g>
				<g class="st10">
					<polygon class="st11" points="287.6,29.5 314.6,43.6 278.7,64.5 253.1,49.7 					"/>
				</g>
				<g class="st10">
					<polygon class="st11" points="361.7,147.7 431.2,107.8 455.6,123.2 387.7,162.7 					"/>
				</g>
				<g class="st10">
					<polygon class="st11" points="474.4,139.1 413.5,177.6 387.5,162.6 454.5,123.6 					"/>
				</g>
				<g class="st10">
					<polygon class="st11" points="325.1,158 363.7,180.3 366.1,204.8 349.3,215 288,179.6 					"/>
				</g>
				<g class="st10">
					<polygon class="st11" points="257.5,197.4 288,179.6 351.7,216.5 321.1,234.3 					"/>
				</g>
			</g>
		</g>
	</g>
	<line class="st12" x1="137.2" y1="242.4" x2="143.6" y2="246.2"/>
	<line class="st12" x1="170.9" y1="261.6" x2="177.3" y2="265.3"/>
	<g class="st13">
		
			<linearGradient id="SVGID_12_" gradientUnits="userSpaceOnUse" x1="-490.3396" y1="102.5121" x2="-418.6479" y2="102.5121" gradientTransform="matrix(-1 0 0 1 -354.6425 0)">
			<stop  offset="0" style="stop-color:#FE8D7A"/>
			<stop  offset="1" style="stop-color:#FFA879"/>
		</linearGradient>
		<path class="st14" d="M135.2,111.3L84.8,81.7c-0.7-0.4-1.5-0.4-2.2,0l-18,10.4c-0.7,0.4-0.7,1.4,0,1.8l50,29.3
			c1,0.6,2.2,0.6,3.2,0l17.4-10.1C135.9,112.7,135.9,111.7,135.2,111.3z"/>
	</g>
	<linearGradient id="SVGID_13_" gradientUnits="userSpaceOnUse" x1="108.9469" y1="58.7271" x2="159.9549" y2="206.8651">
		<stop  offset="0" style="stop-color:#D49EFD;stop-opacity:0.2"/>
		<stop  offset="0.2018" style="stop-color:#D9B5FD;stop-opacity:0.3"/>
		<stop  offset="0.2132" style="stop-color:#D9B4FD;stop-opacity:0.311"/>
		<stop  offset="0.5077" style="stop-color:#D694FC;stop-opacity:0.5963"/>
		<stop  offset="0.7554" style="stop-color:#D480FC;stop-opacity:0.8361"/>
		<stop  offset="0.9245" style="stop-color:#D379FC"/>
	</linearGradient>
	<polyline class="st15" points="74.3,87.8 60,77.9 13.2,102.5 163.3,197.8 236.2,152.1 260,170.3 	"/>
	<g id="Vector_Smart_Object_4_" class="st1">
		<g>
			<path class="st16" d="M71.2,128c5.2,3,5.2,7.8,0.1,10.8c-5.1,3-13.5,3-18.6,0c-5.2-3-5.2-7.8-0.1-10.8C57.7,125,66,125,71.2,128z
				 M54.9,137.4c3.9,2.2,10.2,2.2,14.1,0c3.9-2.2,3.9-5.9,0-8.2c-3.9-2.3-10.2-2.2-14.1,0C51,131.5,51,135.2,54.9,137.4"/>
		</g>
		<g>
			<path class="st17" d="M68.9,129.3c3.9,2.2,3.9,5.9,0,8.2c-3.9,2.2-10.2,2.3-14.1,0c-3.9-2.3-3.9-5.9,0-8.2
				C58.7,127,65,127,68.9,129.3z"/>
		</g>
		<g>
			<path class="st18" d="M82,121.8c11.1,6.4,11.2,16.8,0.1,23.2c-11,6.4-29,6.4-40.1,0c-11.1-6.4-11.2-16.8-0.1-23.2
				C52.9,115.4,70.9,115.4,82,121.8z M52.6,138.8c5.2,3,13.5,3,18.6,0c5.1-3,5.1-7.8-0.1-10.8c-5.2-3-13.5-3-18.6,0
				C47.5,130.9,47.5,135.8,52.6,138.8"/>
		</g>
	</g>
</g>
<path class="st19" d="M259.7,90.6c-15.7,0-28.4,12.7-28.4,28.4c0,13,19.4,42.6,26.1,52.5c1.1,1.6,3.4,1.6,4.5,0
	c6.7-9.9,26.1-39.5,26.1-52.5C288.1,103.3,275.4,90.6,259.7,90.6z M259.7,130.1c-8.1,0-14.7-6.6-14.7-14.7s6.6-14.7,14.7-14.7
	c8.1,0,14.7,6.6,14.7,14.7S267.9,130.1,259.7,130.1z"/>
</svg>
